<?xml version="1.0" encoding="UTF-8"?><svg id="Calque_1" xmlns="http://www.w3.org/2000/svg" viewBox="0 0 425.2 113.39"><defs><style>.cls-1{fill:#fff;}.cls-2{fill:#afca0b;}</style></defs><g><path class="cls-2" d="M38.36,53.22c-1.06,0-1.93,.87-1.93,1.93s.87,1.93,1.93,1.93c6.13,0,11.95-2.35,16.38-6.63l.18-.17v-5.94l-1.06,1.34c-3.78,4.79-9.43,7.54-15.5,7.54Z"/><path class="cls-2" d="M42.54,71.3v-.7s-.7,.13-.7,.13c-1.15,.21-2.33,.31-3.48,.31-1.06,0-1.93,.87-1.93,1.93s.87,1.93,1.93,1.93c1.3,0,2.63-.11,3.94-.34l.59-.1-.1-.59c-.15-.85-.23-1.72-.24-2.58Z"/><path class="cls-2" d="M79.64,11.47H40.41c-9.95,0-18.05,8.1-18.05,18.05v41.98c0,9.27,5.56,17.5,14.17,20.96l23.5,9.46,23.51-9.46c8.6-3.46,14.16-11.69,14.16-20.96V29.52c0-9.95-8.1-18.05-18.05-18.05Zm-17.68,72.25v-18.97c2.63,4.01,6.42,7.14,10.88,8.95-1.07,5.29-5.53,9.38-10.88,10.01Zm11.14-14.12c-6.79-3.3-11.14-10.17-11.14-17.76v-5.44c2.68,4.1,6.57,7.26,11.14,9.06v14.14Zm-11.14,18.01c7.12-.63,13-5.77,14.58-12.74,1.69,.38,3.42,.57,5.16,.57,1.06,0,1.93-.87,1.93-1.93s-.87-1.93-1.93-1.93c-1.6,0-3.19-.19-4.74-.58v-14.4c1.57,.32,3.16,.48,4.74,.48,1.06,0,1.93-.87,1.93-1.93s-.87-1.93-1.93-1.93c-1.59,0-3.19-.19-4.74-.58V28.57c0-3.94-3.21-7.15-7.15-7.15h-9.78c-1.06,0-1.93,.87-1.93,1.93s.87,1.93,1.93,1.93h9.78c1.81,0,3.29,1.47,3.29,3.29v22.66c-6.79-3.3-11.14-10.17-11.14-17.76,0-1.06-.87-1.93-1.93-1.93s-1.93,.87-1.93,1.93c0,.39-.02,.78-.04,1.19v12.36s.04-.07,.04-.07v4.34c0,.39-.02,.78-.04,1.19l.04,31.09c-1.22-.23-2.4-.65-3.5-1.23-3.64-1.93-6.09-5.46-6.62-9.5,2.49-1.12,4.76-2.66,6.75-4.58l.18-.17v-5.94l-1.06,1.34c-1.63,2.07-3.69,3.82-5.99,5.09v-5.42c0-1.06-.87-1.93-1.93-1.93-.96,0-1.78,.72-1.91,1.67-.01,.09-.03,.17-.03,.26v8.03c0,.74,.05,1.51,.16,2.28,.48,3.44,2.01,6.59,4.43,9.11,1.58,1.64,3.42,2.92,5.49,3.79,1.28,.54,2.62,.91,4.01,1.12v9.48l-20.13-8.1c-7.14-2.87-11.75-9.7-11.75-17.39V29.52c0-7.82,6.37-14.19,14.19-14.19h39.23c7.83,0,14.19,6.37,14.19,14.19v41.98c0,7.69-4.61,14.51-11.75,17.38l-20.13,8.1v-9.38Z"/></g><g><g><path class="cls-2" d="M143.32,32.94c0-.42-.11-.77-.34-1.07-.23-.29-.55-.44-.96-.44h-18.44c-.42,0-.78,.11-1.09,.34-.31,.23-.47,.55-.47,.96v35.47c0,.87,.57,1.3,1.72,1.3,.45,0,.85-.11,1.2-.34,.35-.23,.52-.55,.52-.96v-16.3h8.23c.83,0,1.25-.47,1.25-1.41,0-.45-.11-.82-.34-1.12-.23-.3-.53-.44-.91-.44h-8.23v-14.33h16.56c.42,0,.74-.16,.96-.49,.23-.33,.34-.72,.34-1.17Z"/><path class="cls-2" d="M162.85,31.43h-9.17c-.42,0-.74,.15-.96,.44-.23,.3-.34,.65-.34,1.07,0,.45,.11,.84,.34,1.17,.23,.33,.55,.49,.96,.49h7.34v24.07c0,2.67-.64,4.67-1.93,5.99-1.28,1.32-3.11,1.98-5.47,1.98s-4.05-.57-5.39-1.72c-1.34-1.15-2.01-2.71-2.01-4.69,0-.9-.59-1.35-1.77-1.35-1.11,0-1.67,.59-1.67,1.77,0,2.67,1,4.87,3,6.59,2,1.72,4.64,2.58,7.94,2.58s5.82-.89,7.79-2.68c1.96-1.79,2.94-4.61,2.94-8.46v-25.94c0-.87-.54-1.3-1.61-1.3Z"/><path class="cls-2" d="M201.4,25.49c.21,0,.38-.05,.52-.16l5.57-2.97c.42-.21,.63-.59,.63-1.15,0-.38-.11-.72-.34-1.02-.23-.29-.53-.44-.91-.44-.17,0-.31,.05-.42,.16l-5.83,3.18c-.38,.17-.57,.49-.57,.94,0,.38,.14,.72,.42,1.02,.28,.3,.59,.44,.94,.44Z"/><path class="cls-2" d="M213.17,34.61c.42,0,.74-.16,.96-.49,.23-.33,.34-.72,.34-1.17,0-1.01-.43-1.51-1.3-1.51h-18.54c-.42,0-.78,.11-1.09,.34s-.47,.55-.47,.96v35.42c0,.42,.16,.75,.47,.99,.31,.24,.68,.36,1.09,.36h18.54c.87,0,1.3-.52,1.3-1.56,0-.45-.12-.83-.36-1.15-.24-.31-.56-.47-.94-.47h-16.67v-14.43h8.18c.87,0,1.3-.47,1.3-1.41,0-.45-.11-.82-.34-1.12-.23-.3-.55-.44-.96-.44h-8.18v-14.33h16.67Z"/><path class="cls-2" d="M241.98,66.33h-14.85V32.68c0-.83-.57-1.25-1.72-1.25s-1.72,.42-1.72,1.25v35.47c0,.42,.16,.75,.47,.99,.31,.24,.68,.36,1.09,.36h16.72c.76,0,1.15-.54,1.15-1.62s-.38-1.56-1.15-1.56Z"/><path class="cls-2" d="M275,67.77l-10.86-35.45c-.28-.8-.97-1.21-2.07-1.21s-1.78,.4-2.02,1.2l-10.89,35.37c-.03,.07-.05,.19-.05,.37,0,.42,.21,.76,.63,1.04,.42,.28,.87,.42,1.36,.42,.77,0,1.22-.29,1.36-.88l2.41-8.03h14.39l2.4,8.02c.21,.59,.64,.89,1.3,.89,.48,0,.95-.14,1.41-.42,.45-.28,.68-.62,.68-1.02,0-.03,0-.08-.03-.15-.02-.07-.03-.12-.03-.15Zm-19.22-10.14l6.32-21.04,6.28,21.04h-12.61Z"/><path class="cls-2" d="M294.69,34.61c4.44,0,6.91,2.1,7.4,6.3,.03,.87,.61,1.3,1.72,1.3s1.72-.59,1.72-1.77c0-2.64-.99-4.8-2.97-6.49-1.98-1.68-4.62-2.53-7.92-2.53s-5.88,.89-7.84,2.68c-1.96,1.79-2.94,4.59-2.94,8.41v16.15c0,3.85,.98,6.68,2.94,8.46,1.96,1.79,4.59,2.68,7.89,2.68s5.93-.89,7.89-2.68c1.96-1.79,2.94-4.61,2.94-8.46v-7.81c0-.9-.42-1.35-1.25-1.35h-9.17c-.38,0-.69,.15-.91,.44-.23,.3-.34,.63-.34,1.02,0,.42,.11,.77,.34,1.07,.23,.3,.53,.44,.91,.44h6.98v6.2c0,2.67-.64,4.67-1.93,5.99-1.28,1.32-3.11,1.98-5.47,1.98s-4.19-.66-5.47-1.98c-1.29-1.32-1.93-3.32-1.93-5.99v-16.15c0-5.28,2.47-7.92,7.4-7.92Z"/><path class="cls-2" d="M339.65,67.77l-10.86-35.45c-.28-.8-.97-1.21-2.07-1.21s-1.78,.4-2.02,1.2l-10.89,35.37c-.03,.07-.05,.19-.05,.37,0,.42,.21,.76,.63,1.04,.42,.28,.87,.42,1.36,.42,.77,0,1.22-.29,1.36-.88l2.41-8.03h14.39l2.4,8.02c.21,.59,.64,.89,1.3,.89,.49,0,.95-.14,1.41-.42,.45-.28,.68-.62,.68-1.02,0-.03,0-.08-.03-.15-.02-.07-.03-.12-.03-.15Zm-19.22-10.14l6.32-21.04,6.28,21.04h-12.61Z"/><path class="cls-2" d="M359.34,34.61c4.44,0,6.91,2.1,7.4,6.3,.03,.87,.61,1.3,1.72,1.3s1.72-.59,1.72-1.77c0-2.64-.99-4.8-2.97-6.49-1.98-1.68-4.62-2.53-7.92-2.53s-5.88,.89-7.84,2.68c-1.96,1.79-2.94,4.59-2.94,8.41v16.15c0,3.85,.98,6.68,2.94,8.46,1.96,1.79,4.59,2.68,7.89,2.68s5.93-.89,7.89-2.68c1.96-1.79,2.94-4.61,2.94-8.46v-7.81c0-.9-.42-1.35-1.25-1.35h-9.17c-.38,0-.69,.15-.91,.44-.23,.3-.34,.63-.34,1.02,0,.42,.11,.77,.34,1.07,.23,.3,.53,.44,.91,.44h6.98v6.2c0,2.67-.64,4.67-1.93,5.99-1.28,1.32-3.11,1.98-5.47,1.98s-4.19-.66-5.47-1.98c-1.29-1.32-1.93-3.32-1.93-5.99v-16.15c0-5.28,2.47-7.92,7.4-7.92Z"/><path class="cls-2" d="M401.38,66.33h-16.67v-14.43h8.18c.87,0,1.3-.47,1.3-1.41,0-.45-.11-.82-.34-1.12-.23-.3-.55-.44-.96-.44h-8.18v-14.33h16.67c.42,0,.74-.16,.96-.49,.23-.33,.34-.72,.34-1.17,0-1.01-.43-1.51-1.3-1.51h-18.54c-.42,0-.78,.11-1.09,.34-.31,.23-.47,.55-.47,.96v35.42c0,.42,.16,.75,.47,.99,.31,.24,.68,.36,1.09,.36h18.54c.87,0,1.3-.52,1.3-1.56,0-.45-.12-.83-.36-1.15-.24-.31-.56-.47-.94-.47Z"/></g><g><path class="cls-1" d="M122.06,92.9v-8.52c0-.14,.06-.25,.18-.33s.26-.12,.43-.12h4.59c.15,0,.26,.06,.33,.18,.08,.12,.12,.26,.12,.41,0,.17-.04,.32-.12,.44-.08,.12-.19,.18-.33,.18h-3.83v2.95h1.98c.14,0,.25,.05,.33,.16,.08,.11,.12,.24,.12,.39,0,.14-.04,.26-.12,.37-.08,.11-.19,.16-.33,.16h-1.98v2.96h3.83c.14,0,.25,.06,.33,.18,.08,.12,.12,.27,.12,.44,0,.16-.04,.29-.12,.41-.08,.12-.19,.18-.33,.18h-4.59c-.16,0-.3-.04-.43-.12s-.18-.19-.18-.33Zm1.82-10.69c0-.15,.06-.27,.19-.33l1.6-.81c.07-.02,.12-.03,.14-.03,.12,0,.22,.05,.31,.17,.09,.11,.13,.23,.13,.36,0,.17-.07,.29-.21,.35l-1.56,.79c-.05,.03-.1,.04-.15,.04-.12,0-.23-.05-.32-.17-.09-.11-.14-.23-.14-.36Z"/><path class="cls-1" d="M130.35,92.9v-8.53c0-.15,.07-.25,.2-.33,.13-.07,.29-.11,.48-.11s.35,.04,.48,.11c.13,.07,.2,.18,.2,.33v7.77h3.35c.13,0,.23,.06,.3,.18,.07,.12,.11,.26,.11,.43s-.04,.31-.11,.42c-.07,.12-.17,.18-.3,.18h-4.11c-.16,0-.3-.04-.43-.12s-.18-.19-.18-.33Z"/><path class="cls-1" d="M137.37,92.79c0-.05,0-.09,.01-.11l2.56-8.35c.11-.31,.41-.46,.92-.46s.82,.14,.93,.43l2.55,8.35c.02,.05,.03,.09,.03,.12,0,.16-.1,.3-.3,.42-.2,.12-.41,.18-.64,.18-.27,0-.44-.09-.51-.28l-.53-1.85h-3.17l-.53,1.84c-.06,.19-.22,.29-.48,.29-.21,0-.4-.06-.58-.17s-.27-.24-.27-.4Zm2.16-2.64h2.56l-1.29-4.42-1.27,4.42Z"/><path class="cls-1" d="M146.74,90.56v-3.75c0-.99,.26-1.71,.79-2.18,.52-.46,1.21-.69,2.06-.69s1.57,.22,2.12,.65c.54,.43,.82,1.01,.82,1.73,0,.25-.05,.42-.16,.51-.11,.1-.28,.14-.52,.14-.45,0-.67-.15-.68-.45-.09-.92-.61-1.38-1.53-1.38-1.01,0-1.52,.55-1.52,1.66v3.75c0,1.11,.51,1.66,1.52,1.66,.49,0,.87-.14,1.13-.41,.27-.28,.4-.69,.4-1.26v-1.06h-1.3c-.14,0-.25-.05-.32-.16-.08-.11-.12-.24-.12-.39,0-.14,.04-.26,.12-.37s.18-.17,.32-.17h2.22c.14,0,.25,.04,.33,.14,.08,.09,.12,.2,.12,.33v1.69c0,.99-.26,1.71-.79,2.18-.53,.47-1.23,.7-2.11,.7s-1.58-.23-2.1-.7c-.52-.46-.79-1.19-.79-2.18Z"/><path class="cls-1" d="M154.87,92.79c0-.05,0-.09,.01-.11l2.56-8.35c.11-.31,.41-.46,.92-.46s.82,.14,.93,.43l2.55,8.35c.02,.05,.03,.09,.03,.12,0,.16-.1,.3-.3,.42-.2,.12-.41,.18-.64,.18-.27,0-.44-.09-.51-.28l-.53-1.85h-3.17l-.53,1.84c-.06,.19-.22,.29-.48,.29-.21,0-.4-.06-.58-.17s-.27-.24-.27-.4Zm2.16-2.64h2.56l-1.29-4.42-1.27,4.42Z"/><path class="cls-1" d="M164.23,90.56v-3.75c0-.99,.26-1.71,.79-2.18,.52-.46,1.21-.69,2.06-.69s1.57,.22,2.12,.65c.54,.43,.82,1.01,.82,1.73,0,.25-.05,.42-.16,.51-.11,.1-.28,.14-.52,.14-.45,0-.67-.15-.68-.45-.09-.92-.61-1.38-1.53-1.38-1.01,0-1.52,.55-1.52,1.66v3.75c0,1.11,.51,1.66,1.52,1.66,.49,0,.87-.14,1.13-.41,.27-.28,.4-.69,.4-1.26v-1.06h-1.3c-.14,0-.25-.05-.32-.16-.08-.11-.12-.24-.12-.39,0-.14,.04-.26,.12-.37s.18-.17,.32-.17h2.22c.14,0,.25,.04,.33,.14,.08,.09,.12,.2,.12,.33v1.69c0,.99-.26,1.71-.79,2.18-.53,.47-1.23,.7-2.11,.7s-1.58-.23-2.1-.7c-.52-.46-.79-1.19-.79-2.18Z"/><path class="cls-1" d="M173.03,92.9v-8.52c0-.14,.06-.25,.18-.33s.26-.12,.43-.12h4.59c.15,0,.26,.06,.33,.18,.08,.12,.12,.26,.12,.41,0,.17-.04,.32-.12,.44-.08,.12-.19,.18-.33,.18h-3.83v2.95h1.98c.14,0,.25,.05,.33,.16,.08,.11,.12,.24,.12,.39,0,.14-.04,.26-.12,.37-.08,.11-.19,.16-.33,.16h-1.98v2.96h3.83c.14,0,.25,.06,.33,.18,.08,.12,.12,.27,.12,.44,0,.16-.04,.29-.12,.41-.08,.12-.19,.18-.33,.18h-4.59c-.16,0-.3-.04-.43-.12s-.18-.19-.18-.33Z"/><path class="cls-1" d="M185.36,93.17v-9.28c0-.13,.07-.23,.19-.32s.29-.12,.49-.12,.35,.04,.48,.12c.13,.08,.2,.19,.2,.32v9.28c0,.12-.07,.23-.21,.32-.14,.09-.3,.13-.48,.13-.2,0-.36-.04-.49-.13-.13-.09-.19-.2-.19-.32Z"/><path class="cls-1" d="M193.35,92.79c0-.05,0-.09,.01-.11l2.56-8.35c.11-.31,.41-.46,.92-.46s.82,.14,.93,.43l2.55,8.35c.02,.05,.03,.09,.03,.12,0,.16-.1,.3-.3,.42-.2,.12-.41,.18-.64,.18-.27,0-.44-.09-.51-.28l-.53-1.85h-3.17l-.53,1.84c-.06,.19-.22,.29-.48,.29-.21,0-.4-.06-.58-.17s-.27-.24-.27-.4Zm2.16-2.64h2.56l-1.29-4.42-1.27,4.42Z"/><path class="cls-1" d="M202.81,92.91v-8.53c0-.14,.06-.25,.18-.33s.26-.12,.43-.12h2.35c.79,0,1.42,.16,1.89,.49,.47,.33,.71,.91,.71,1.74,0,1.06-.36,1.76-1.09,2.09,.44,.17,.77,.42,.99,.74,.22,.32,.33,.79,.33,1.41v.25c0,.94-.23,1.63-.7,2.06-.46,.43-1.09,.64-1.87,.64h-2.62c-.18,0-.33-.04-.44-.13s-.17-.19-.17-.31Zm1.35-5.2h1.53c.87,0,1.3-.44,1.3-1.33,0-.83-.44-1.24-1.33-1.24h-1.51v2.57Zm0,4.43h1.61c.97,0,1.46-.53,1.46-1.6v-.21c0-.55-.12-.94-.37-1.19-.25-.24-.61-.36-1.09-.36h-1.61v3.35Z"/><path class="cls-1" d="M210.81,92.79c0-.05,0-.09,.01-.11l2.56-8.35c.11-.31,.41-.46,.92-.46s.82,.14,.93,.43l2.55,8.35c.02,.05,.03,.09,.03,.12,0,.16-.1,.3-.3,.42-.2,.12-.41,.18-.64,.18-.27,0-.44-.09-.51-.28l-.53-1.85h-3.17l-.53,1.84c-.06,.19-.22,.29-.48,.29-.21,0-.4-.06-.58-.17s-.27-.24-.27-.4Zm2.16-2.64h2.56l-1.29-4.42-1.27,4.42Z"/><path class="cls-1" d="M218.85,84.56c0-.17,.04-.31,.12-.44,.08-.13,.19-.19,.33-.19h5.35c.15,0,.26,.06,.33,.18,.08,.12,.12,.26,.12,.43,0,.18-.04,.34-.12,.46-.08,.12-.19,.19-.33,.19h-1.98v7.71c0,.14-.07,.25-.21,.33s-.3,.12-.48,.12c-.19,0-.35-.04-.48-.12s-.2-.19-.2-.33v-7.71h-2c-.14,0-.25-.06-.33-.19-.08-.13-.12-.28-.12-.45Z"/><path class="cls-1" d="M227,84.56c0-.17,.04-.31,.12-.44,.08-.13,.19-.19,.33-.19h5.35c.15,0,.26,.06,.33,.18,.08,.12,.12,.26,.12,.43,0,.18-.04,.34-.12,.46-.08,.12-.19,.19-.33,.19h-1.98v7.71c0,.14-.07,.25-.21,.33s-.3,.12-.48,.12c-.19,0-.35-.04-.48-.12s-.2-.19-.2-.33v-7.71h-2c-.14,0-.25-.06-.33-.19-.08-.13-.12-.28-.12-.45Z"/><path class="cls-1" d="M234.43,92.79c0-.05,0-.09,.01-.11l2.56-8.35c.11-.31,.41-.46,.92-.46s.82,.14,.93,.43l2.55,8.35c.02,.05,.03,.09,.03,.12,0,.16-.1,.3-.3,.42-.2,.12-.41,.18-.64,.18-.27,0-.44-.09-.51-.28l-.53-1.85h-3.17l-.53,1.84c-.06,.19-.22,.29-.48,.29-.21,0-.4-.06-.58-.17s-.27-.24-.27-.4Zm2.16-2.64h2.56l-1.29-4.42-1.27,4.42Z"/><path class="cls-1" d="M243.79,90.56v-3.75c0-.99,.26-1.71,.79-2.18,.52-.46,1.21-.69,2.06-.69s1.57,.22,2.12,.65c.54,.43,.82,1.01,.82,1.73,0,.25-.05,.42-.16,.51-.11,.1-.28,.14-.52,.14-.45,0-.67-.15-.68-.45-.09-.92-.61-1.38-1.53-1.38-1.01,0-1.52,.55-1.52,1.66v3.75c0,1.11,.51,1.66,1.52,1.66,.49,0,.87-.14,1.13-.41,.27-.28,.4-.69,.4-1.26v-1.06h-1.3c-.14,0-.25-.05-.32-.16-.08-.11-.12-.24-.12-.39,0-.14,.04-.26,.12-.37s.18-.17,.32-.17h2.22c.14,0,.25,.04,.33,.14,.08,.09,.12,.2,.12,.33v1.69c0,.99-.26,1.71-.79,2.18-.53,.47-1.23,.7-2.11,.7s-1.58-.23-2.1-.7c-.52-.46-.79-1.19-.79-2.18Z"/><path class="cls-1" d="M252.59,92.9v-8.52c0-.14,.06-.25,.18-.33s.26-.12,.43-.12h4.59c.15,0,.26,.06,.33,.18,.08,.12,.12,.26,.12,.41,0,.17-.04,.32-.12,.44-.08,.12-.19,.18-.33,.18h-3.83v2.95h1.98c.14,0,.25,.05,.33,.16,.08,.11,.12,.24,.12,.39,0,.14-.04,.26-.12,.37-.08,.11-.19,.16-.33,.16h-1.98v2.96h3.83c.14,0,.25,.06,.33,.18,.08,.12,.12,.27,.12,.44,0,.16-.04,.29-.12,.41-.08,.12-.19,.18-.33,.18h-4.59c-.16,0-.3-.04-.43-.12s-.18-.19-.18-.33Z"/><path class="cls-1" d="M264.92,93.17v-9.28c0-.13,.07-.23,.19-.32s.29-.12,.49-.12,.35,.04,.48,.12c.13,.08,.2,.19,.2,.32v9.28c0,.12-.07,.23-.21,.32-.14,.09-.3,.13-.48,.13-.2,0-.36-.04-.49-.13-.13-.09-.19-.2-.19-.32Z"/><path class="cls-1" d="M273.58,92.91v-8.53c0-.14,.06-.25,.18-.33s.26-.12,.43-.12h2.35c.79,0,1.42,.16,1.89,.49,.47,.33,.71,.91,.71,1.74,0,1.06-.36,1.76-1.09,2.09,.44,.17,.77,.42,.99,.74,.22,.32,.33,.79,.33,1.41v.25c0,.94-.23,1.63-.7,2.06-.46,.43-1.09,.64-1.87,.64h-2.62c-.18,0-.33-.04-.44-.13s-.17-.19-.17-.31Zm1.35-5.2h1.53c.87,0,1.3-.44,1.3-1.33,0-.83-.44-1.24-1.33-1.24h-1.51v2.57Zm0,4.43h1.61c.97,0,1.46-.53,1.46-1.6v-.21c0-.55-.12-.94-.37-1.19-.25-.24-.61-.36-1.09-.36h-1.61v3.35Z"/><path class="cls-1" d="M282.16,90.56v-3.75c0-.99,.26-1.71,.79-2.18,.52-.46,1.22-.69,2.1-.69s1.58,.23,2.11,.69c.53,.47,.79,1.19,.79,2.18v3.75c0,.99-.26,1.71-.79,2.18-.53,.47-1.23,.7-2.11,.7s-1.58-.23-2.1-.7c-.52-.46-.79-1.19-.79-2.18Zm1.37,0c0,1.11,.51,1.66,1.52,1.66,.49,0,.87-.14,1.13-.41,.27-.28,.4-.69,.4-1.25v-3.75c0-.56-.13-.98-.4-1.25-.27-.27-.64-.41-1.13-.41-1.01,0-1.52,.55-1.52,1.66v3.75Z"/><path class="cls-1" d="M291.09,92.9v-8.53c0-.15,.07-.25,.2-.33,.13-.07,.29-.11,.48-.11s.35,.04,.48,.11c.13,.07,.2,.18,.2,.33v8.53c0,.14-.07,.25-.2,.33s-.29,.12-.48,.12-.34-.04-.48-.12c-.14-.08-.21-.19-.21-.33Z"/><path class="cls-1" d="M295.22,91.94c0-.16,.06-.33,.18-.49,.12-.16,.26-.24,.41-.24,.09,0,.21,.05,.34,.16,.13,.11,.26,.23,.39,.36,.13,.13,.32,.25,.59,.36,.26,.11,.56,.17,.88,.17,.49,0,.88-.12,1.18-.35,.3-.23,.44-.57,.44-1.02,0-.41-.14-.76-.43-1.04-.29-.28-.64-.5-1.04-.66-.41-.16-.82-.34-1.23-.53-.41-.19-.76-.47-1.05-.86-.29-.38-.43-.85-.43-1.42,0-.45,.09-.85,.26-1.18,.18-.33,.41-.59,.71-.77,.3-.18,.62-.31,.95-.39,.33-.08,.68-.12,1.05-.12,.23,0,.47,.02,.73,.04,.25,.03,.5,.08,.75,.15s.46,.17,.62,.29c.16,.13,.24,.27,.24,.43s-.05,.32-.15,.49c-.1,.17-.24,.25-.41,.25-.09,0-.2-.04-.35-.12-.15-.08-.34-.17-.59-.25-.25-.08-.53-.12-.84-.12-.49,0-.88,.1-1.17,.29s-.44,.49-.44,.89c0,.26,.08,.48,.23,.67,.15,.19,.35,.34,.6,.46,.24,.12,.52,.24,.82,.36s.6,.25,.9,.41c.3,.16,.57,.33,.81,.54,.25,.2,.44,.48,.6,.83s.23,.76,.23,1.23c0,.89-.27,1.56-.8,2.03-.54,.46-1.25,.7-2.13,.7-.79,0-1.46-.17-2.02-.5-.55-.33-.83-.67-.83-1.02Z"/><path class="cls-1" d="M307.96,92.91v-8.54c0-.12,.06-.22,.17-.31,.12-.09,.26-.13,.43-.13h2.28c.88,0,1.58,.23,2.11,.69,.53,.47,.79,1.19,.79,2.18v3.67c0,.99-.26,1.71-.79,2.18-.53,.46-1.23,.69-2.11,.69h-2.28c-.17,0-.32-.04-.43-.13-.12-.09-.17-.19-.17-.31Zm1.37-.77h1.52c1.02,0,1.53-.55,1.53-1.66v-3.67c0-1.11-.51-1.66-1.53-1.66h-1.52v7Z"/><path class="cls-1" d="M316.89,92.9v-8.52c0-.14,.06-.25,.18-.33s.26-.12,.43-.12h4.59c.15,0,.26,.06,.33,.18,.08,.12,.12,.26,.12,.41,0,.17-.04,.32-.12,.44-.08,.12-.19,.18-.33,.18h-3.83v2.95h1.98c.14,0,.25,.05,.33,.16,.08,.11,.12,.24,.12,.39,0,.14-.04,.26-.12,.37-.08,.11-.19,.16-.33,.16h-1.98v2.96h3.83c.14,0,.25,.06,.33,.18,.08,.12,.12,.27,.12,.44,0,.16-.04,.29-.12,.41-.08,.12-.19,.18-.33,.18h-4.59c-.16,0-.3-.04-.43-.12s-.18-.19-.18-.33Z"/><path class="cls-1" d="M329.21,90.56v-3.75c0-.99,.26-1.71,.79-2.18,.53-.46,1.22-.69,2.07-.69s1.58,.22,2.12,.65c.54,.43,.81,.99,.81,1.68,0,.27-.05,.46-.15,.56s-.28,.15-.53,.15c-.45,0-.67-.15-.68-.45-.05-.92-.55-1.38-1.51-1.38-1.03,0-1.55,.55-1.55,1.66v3.75c0,1.11,.52,1.66,1.57,1.66,.31,0,.57-.04,.77-.13s.35-.22,.44-.39c.09-.17,.15-.32,.19-.45,.03-.13,.06-.29,.08-.48,.03-.3,.25-.45,.67-.45,.25,0,.43,.05,.53,.15s.16,.29,.16,.56c0,.71-.27,1.29-.81,1.74-.54,.45-1.25,.67-2.13,.67s-1.54-.23-2.06-.7c-.52-.46-.79-1.19-.79-2.18Z"/><path class="cls-1" d="M337.81,92.9v-8.53c0-.15,.07-.25,.2-.33,.13-.07,.29-.11,.48-.11s.35,.04,.48,.11c.13,.07,.2,.18,.2,.33v3.56h3.21v-3.56c0-.15,.07-.25,.2-.33,.13-.07,.29-.11,.48-.11s.35,.04,.48,.11c.13,.07,.2,.18,.2,.33v8.53c0,.14-.07,.25-.2,.33s-.29,.12-.48,.12-.34-.04-.48-.12c-.14-.08-.21-.19-.21-.33v-3.89h-3.21v3.89c0,.14-.07,.25-.2,.33s-.29,.12-.48,.12-.34-.04-.48-.12c-.14-.08-.21-.19-.21-.33Z"/><path class="cls-1" d="M346.33,92.79c0-.05,0-.09,.01-.11l2.56-8.35c.11-.31,.41-.46,.92-.46s.82,.14,.93,.43l2.55,8.35c.02,.05,.03,.09,.03,.12,0,.16-.1,.3-.3,.42-.2,.12-.41,.18-.64,.18-.27,0-.44-.09-.51-.28l-.53-1.85h-3.17l-.53,1.84c-.06,.19-.22,.29-.48,.29-.21,0-.4-.06-.58-.17s-.27-.24-.27-.4Zm2.16-2.64h2.56l-1.29-4.42-1.27,4.42Z"/><path class="cls-1" d="M355.75,90.56v-6.19c0-.15,.07-.25,.2-.33,.13-.07,.29-.11,.48-.11s.35,.04,.48,.11c.13,.07,.2,.18,.2,.33v6.19c0,.56,.14,.97,.41,1.25,.27,.27,.66,.41,1.16,.41,1.06,0,1.58-.55,1.58-1.66v-6.19c0-.15,.07-.25,.2-.33,.13-.07,.29-.11,.48-.11s.35,.04,.48,.11c.13,.07,.2,.18,.2,.33v6.19c0,.99-.27,1.71-.8,2.18-.54,.47-1.25,.7-2.14,.7s-1.6-.23-2.13-.7c-.54-.46-.81-1.19-.81-2.18Z"/><path class="cls-1" d="M364.84,92.9v-8.52c0-.14,.06-.25,.18-.33s.26-.12,.43-.12h4.52c.15,0,.26,.06,.33,.17,.07,.12,.11,.26,.11,.42s-.04,.32-.12,.44c-.08,.12-.18,.18-.32,.18h-3.76v2.95h2c.14,0,.25,.05,.32,.16,.08,.11,.12,.24,.12,.39,0,.14-.04,.26-.11,.37-.07,.11-.18,.16-.33,.16h-2v3.72c0,.15-.07,.26-.2,.33-.13,.08-.29,.12-.48,.12s-.34-.04-.48-.12c-.14-.08-.21-.19-.21-.33Z"/><path class="cls-1" d="M372.86,92.9v-8.52c0-.14,.06-.25,.18-.33s.26-.12,.43-.12h4.52c.15,0,.26,.06,.33,.17,.07,.12,.11,.26,.11,.42s-.04,.32-.12,.44c-.08,.12-.18,.18-.32,.18h-3.76v2.95h2c.14,0,.25,.05,.32,.16,.08,.11,.12,.24,.12,.39,0,.14-.04,.26-.11,.37-.07,.11-.18,.16-.33,.16h-2v3.72c0,.15-.07,.26-.2,.33-.13,.08-.29,.12-.48,.12s-.34-.04-.48-.12c-.14-.08-.21-.19-.21-.33Z"/><path class="cls-1" d="M379.03,92.79c0-.05,0-.09,.01-.11l2.56-8.35c.11-.31,.41-.46,.92-.46s.82,.14,.93,.43l2.55,8.35c.02,.05,.03,.09,.03,.12,0,.16-.1,.3-.3,.42-.2,.12-.41,.18-.64,.18-.27,0-.44-.09-.51-.28l-.53-1.85h-3.17l-.53,1.84c-.06,.19-.22,.29-.48,.29-.21,0-.4-.06-.58-.17s-.27-.24-.27-.4Zm2.16-2.64h2.56l-1.29-4.42-1.27,4.42Z"/><path class="cls-1" d="M388.4,90.56v-3.75c0-.99,.26-1.71,.79-2.18,.52-.46,1.21-.69,2.06-.69s1.57,.22,2.12,.65c.54,.43,.82,1.01,.82,1.73,0,.25-.05,.42-.16,.51-.11,.1-.28,.14-.52,.14-.45,0-.67-.15-.68-.45-.09-.92-.61-1.38-1.53-1.38-1.01,0-1.52,.55-1.52,1.66v3.75c0,1.11,.51,1.66,1.52,1.66,.49,0,.87-.14,1.13-.41,.27-.28,.4-.69,.4-1.26v-1.06h-1.3c-.14,0-.25-.05-.32-.16-.08-.11-.12-.24-.12-.39,0-.14,.04-.26,.12-.37s.18-.17,.32-.17h2.22c.14,0,.25,.04,.33,.14,.08,.09,.12,.2,.12,.33v1.69c0,.99-.26,1.71-.79,2.18-.53,.47-1.23,.7-2.11,.7s-1.58-.23-2.1-.7c-.52-.46-.79-1.19-.79-2.18Z"/><path class="cls-1" d="M397.2,92.9v-8.52c0-.14,.06-.25,.18-.33s.26-.12,.43-.12h4.59c.15,0,.26,.06,.33,.18,.08,.12,.12,.26,.12,.41,0,.17-.04,.32-.12,.44-.08,.12-.19,.18-.33,.18h-3.83v2.95h1.98c.14,0,.25,.05,.33,.16,.08,.11,.12,.24,.12,.39,0,.14-.04,.26-.12,.37-.08,.11-.19,.16-.33,.16h-1.98v2.96h3.83c.14,0,.25,.06,.33,.18,.08,.12,.12,.27,.12,.44,0,.16-.04,.29-.12,.41-.08,.12-.19,.18-.33,.18h-4.59c-.16,0-.3-.04-.43-.12s-.18-.19-.18-.33Z"/></g></g></svg>