<?xml version="1.0" standalone="no"?>
<!DOCTYPE svg PUBLIC "-//W3C//DTD SVG 20010904//EN"
 "http://www.w3.org/TR/2001/REC-SVG-20010904/DTD/svg10.dtd">
<svg version="1.0" xmlns="http://www.w3.org/2000/svg"
 width="700.000000pt" height="700.000000pt" viewBox="0 0 700.000000 700.000000"
 preserveAspectRatio="xMidYMid meet">
<metadata>
Created by potrace 1.14, written by Peter Selinger 2001-2017
</metadata>
<g transform="translate(0.000000,700.000000) scale(0.100000,-0.100000)"
fill="#000000" stroke="none">
<path d="M2347 6294 c-1 -1 -56 -4 -122 -7 -545 -28 -984 -448 -1043 -997 -10
-88 -7 -2800 2 -2875 31 -244 147 -523 287 -691 47 -56 115 -128 148 -158 19
-17 46 -42 60 -54 87 -80 254 -173 446 -250 55 -22 206 -83 335 -135 129 -53
339 -137 465 -187 127 -50 244 -97 260 -105 17 -7 94 -39 173 -70 l142 -57
628 251 c345 139 641 258 657 265 17 7 84 35 150 62 478 195 788 580 876 1089
15 84 21 2826 7 2934 -46 349 -243 650 -539 826 -46 27 -110 60 -143 73 -83
34 -239 72 -321 78 -56 5 -2462 12 -2468 8z m2473 -248 c191 -23 398 -129 525
-269 66 -72 75 -83 111 -142 64 -106 106 -227 121 -345 5 -36 8 -688 7 -1450
-1 -1375 -1 -1386 -22 -1485 -68 -316 -253 -584 -518 -747 -91 -56 -188 -99
-564 -248 -168 -67 -318 -128 -335 -135 -118 -53 -517 -206 -522 -202 -8 9 -7
556 1 565 4 4 15 7 24 8 14 0 56 7 122 19 72 14 227 81 310 134 74 49 94 65
173 144 112 113 201 262 247 417 l20 67 45 -8 c124 -23 270 -32 312 -18 47 15
78 63 76 119 -1 38 -7 50 -37 77 -29 27 -44 33 -83 34 -27 0 -64 2 -83 4 -144
17 -193 25 -200 32 -2 2 -5 201 -5 441 l0 437 35 -1 c19 0 67 -4 105 -9 122
-13 189 -10 218 11 32 23 57 72 52 99 -2 11 -4 27 -4 36 -1 20 -40 64 -66 74
-11 4 -49 9 -85 11 -80 4 -139 12 -205 25 l-50 11 0 757 c1 416 -3 779 -8 806
-26 150 -134 277 -286 337 -54 20 -72 22 -418 24 -338 1 -364 0 -392 -17 -68
-41 -78 -130 -20 -185 l30 -29 352 -5 c392 -6 398 -7 454 -74 16 -20 35 -52
40 -70 7 -22 10 -287 11 -744 l0 -711 -27 10 c-14 6 -69 39 -121 74 -308 206
-511 553 -535 918 -9 126 -13 144 -46 177 -58 57 -159 33 -189 -45 -7 -17 -10
-565 -10 -1581 l0 -1554 -27 6 c-71 17 -191 70 -257 115 -169 113 -304 316
-331 499 l-7 45 59 28 c80 40 175 101 258 168 117 95 110 75 110 275 0 96 -3
174 -7 174 -4 0 -23 -21 -43 -47 -85 -111 -202 -220 -315 -292 l-65 -42 -5
190 -5 191 -30 30 c-60 60 -156 46 -191 -28 -23 -50 -16 -663 10 -767 76 -310
270 -556 546 -692 76 -37 197 -78 255 -87 22 -3 41 -5 43 -6 4 0 2 -580 -3
-580 -7 0 -137 49 -160 60 -11 5 -139 57 -285 116 -916 366 -912 365 -1036
452 -78 55 -182 154 -229 217 -16 22 -33 42 -36 45 -8 7 -99 158 -99 165 0 2
-11 29 -25 59 -32 71 -72 213 -84 301 -6 41 -9 632 -10 1440 0 1461 0 1445 49
1586 88 253 295 460 544 543 92 31 112 35 206 43 41 3 76 6 77 7 7 5 2490 -3
2533 -8z m-1043 -2109 c133 -139 274 -242 435 -317 l95 -45 1 -432 c0 -238 -3
-433 -6 -433 -3 0 -35 16 -70 36 -251 138 -460 396 -553 683 -45 141 -59 256
-59 495 l0 209 49 -67 c27 -37 75 -95 108 -129z m-99 -1015 c133 -179 346
-352 546 -442 36 -17 66 -32 66 -34 0 -2 -10 -35 -21 -72 -84 -271 -321 -482
-601 -533 l-48 -8 0 578 c0 319 2 579 4 579 2 0 26 -31 54 -68z"/>
<path d="M3124 4188 c-172 -219 -414 -376 -678 -438 -84 -20 -136 -27 -248
-34 -36 -3 -79 -11 -95 -20 -67 -34 -77 -133 -19 -191 17 -17 79 -32 121 -29
17 2 59 5 95 8 293 22 629 172 840 372 l44 43 1 175 c0 97 -3 176 -6 176 -3 0
-28 -28 -55 -62z"/>
<path d="M2389 2636 c-5 -5 -104 -15 -195 -20 -34 -2 -74 -11 -90 -19 -74 -38
-78 -148 -7 -201 34 -25 140 -25 307 0 38 6 38 7 32 43 -3 20 -9 73 -12 119
-6 74 -16 96 -35 78z"/>
</g>
</svg>
