<?xml version="1.0" encoding="UTF-8"?><svg id="Calque_1" xmlns="http://www.w3.org/2000/svg" viewBox="0 0 425.2 425.2"><defs><style>.cls-3{fill:#afca0b;}</style></defs><path class="cls-3" d="M174.69,165.75c-1.28,0-2.32,1.04-2.32,2.32s1.04,2.32,2.32,2.32c10.76,0,20.53-4.28,27.72-11.22v-6.91c-6.47,8.2-16.48,13.48-27.72,13.48Z"/><path class="cls-3" d="M174.69,196.69c-1.28,0-2.32,1.04-2.32,2.32s1.04,2.32,2.32,2.32c2.27,0,4.5-.2,6.67-.57-.26-1.52-.41-3.07-.44-4.64-2.03,.36-4.11,.56-6.23,.56Z"/><path class="cls-3" d="M276.69,123.59c0-16.72-13.6-30.32-30.32-30.32h-68.11c-16.72,0-30.32,13.6-30.32,30.32v72.88c0,15.68,9.4,29.59,23.95,35.45l30.52,12.28,7.52,3.02,2.39,.96,40.42-16.26h0c14.55-5.85,23.95-19.77,23.95-35.45V123.59Zm-40.66,71.17c-12.57-5.41-21.39-17.91-21.39-32.44v-13.2c4.57,8.6,12.18,15.34,21.39,18.77v26.86Zm-21.39-13.77c4.52,8.5,12.01,15.19,21.09,18.65-1.7,10.39-10.4,18.45-21.09,19.16v-37.81Zm57.4,15.47c0,13.77-8.26,25.99-21.04,31.14l-36.37,14.63v-18.76c12.77-.7,23.24-10.13,25.56-22.41,3.12,.79,6.38,1.21,9.74,1.21,1.28,0,2.32-1.04,2.32-2.32s-1.04-2.32-2.32-2.32c-3.21,0-6.31-.44-9.27-1.24,0-.15,.01-.29,.01-.44v-26.63c2.97,.71,6.07,1.09,9.26,1.09,1.28,0,2.32-1.04,2.32-2.32s-1.04-2.32-2.32-2.32c-3.2,0-6.31-.44-9.26-1.24v-42.57c0-6.28-5.11-11.39-11.39-11.39h-16.98c-1.28,0-2.32,1.04-2.32,2.32s1.04,2.32,2.32,2.32h16.98c3.72,0,6.74,3.02,6.74,6.74v40.95c-12.57-5.41-21.39-17.91-21.39-32.44,0-1.28-1.04-2.32-2.32-2.32s-2.32,1.04-2.32,2.32c0,.7-.03,1.38-.07,2.07v16.73s.04-.09,.07-.13v12.27c0,.7-.03,1.38-.07,2.07v16.73s.04-.09,.07-.13v38.58s-.04,0-.07,0c-2.68-.37-5.22-1.21-7.52-2.43-6.64-3.52-11.36-10.21-12.12-18.04,4.53-1.93,8.63-4.68,12.12-8.05v-6.91c-3.27,4.15-7.44,7.55-12.23,9.89v-11.11c0-1.28-1.04-2.32-2.32-2.32-1.18,0-2.14,.88-2.29,2.01-.01,.1-.03,.21-.03,.32v13.94c0,1.3,.1,2.57,.27,3.82,.82,5.88,3.5,11.16,7.42,15.25,2.58,2.69,5.7,4.87,9.19,6.34,2.36,1,4.88,1.67,7.52,1.97,.02,0,.04,0,.07,0v18.9l-.07-.03-7.52-3.02-28.78-11.58c-12.78-5.14-21.04-17.36-21.04-31.14V123.59c0-14.15,11.52-25.67,25.67-25.67h68.11c14.15,0,25.67,11.52,25.67,25.67v72.88Z"/><g><path class="cls-3" d="M81.06,264.91c0-.46-.13-.85-.37-1.18-.25-.33-.6-.49-1.06-.49h-20.36c-.46,0-.86,.12-1.21,.37-.35,.25-.52,.6-.52,1.06v39.18c0,.96,.63,1.44,1.9,1.44,.5,0,.94-.12,1.32-.37,.38-.25,.58-.6,.58-1.06v-18.01h9.09c.92,0,1.38-.52,1.38-1.55,0-.5-.13-.91-.37-1.24-.25-.33-.59-.49-1.01-.49h-9.09v-15.82h18.29c.46,0,.81-.18,1.06-.55,.25-.36,.37-.8,.37-1.29Z"/><path class="cls-3" d="M102.63,263.25h-10.13c-.46,0-.82,.16-1.06,.49-.25,.33-.37,.72-.37,1.18,0,.5,.12,.93,.37,1.29,.25,.36,.6,.55,1.06,.55h8.11v26.58c0,2.95-.71,5.16-2.13,6.62-1.42,1.46-3.43,2.19-6.04,2.19s-4.48-.63-5.95-1.9c-1.48-1.27-2.21-2.99-2.21-5.18,0-1-.65-1.5-1.96-1.5-1.23,0-1.84,.65-1.84,1.96,0,2.95,1.1,5.38,3.31,7.28,2.21,1.9,5.13,2.85,8.77,2.85s6.43-.99,8.6-2.96c2.17-1.98,3.25-5.09,3.25-9.35v-28.65c0-.96-.59-1.44-1.78-1.44Z"/><path class="cls-3" d="M145.2,256.69c.23,0,.42-.06,.57-.17l6.16-3.28c.46-.23,.69-.65,.69-1.26,0-.42-.12-.8-.37-1.12-.25-.33-.59-.49-1.01-.49-.19,0-.34,.06-.46,.17l-6.44,3.51c-.42,.19-.63,.54-.63,1.04,0,.42,.15,.8,.46,1.12,.31,.33,.65,.49,1.04,.49Z"/><path class="cls-3" d="M158.2,266.75c.46,0,.81-.18,1.06-.55,.25-.36,.37-.8,.37-1.29,0-1.11-.48-1.67-1.44-1.67h-20.48c-.46,0-.86,.12-1.21,.37s-.52,.6-.52,1.06v39.12c0,.46,.17,.83,.52,1.09,.34,.27,.75,.4,1.21,.4h20.48c.96,0,1.44-.58,1.44-1.73,0-.5-.13-.92-.4-1.27-.27-.34-.61-.52-1.04-.52h-18.41v-15.94h9.03c.96,0,1.44-.52,1.44-1.55,0-.5-.12-.91-.37-1.24-.25-.33-.6-.49-1.06-.49h-9.03v-15.82h18.41Z"/><path class="cls-3" d="M190.02,301.79h-16.4v-37.16c0-.92-.63-1.38-1.9-1.38s-1.9,.46-1.9,1.38v39.18c0,.46,.17,.83,.52,1.09,.34,.27,.75,.4,1.21,.4h18.47c.84,0,1.27-.59,1.27-1.78s-.42-1.73-1.27-1.73Z"/><path class="cls-3" d="M226.49,303.38l-11.99-39.15c-.31-.89-1.07-1.33-2.29-1.33s-1.96,.44-2.23,1.32l-12.03,39.06c-.04,.08-.06,.21-.06,.4,0,.46,.23,.84,.7,1.15,.46,.31,.97,.46,1.51,.46,.85,0,1.35-.32,1.51-.97l2.67-8.87h15.89l2.65,8.86c.23,.65,.71,.98,1.44,.98,.54,0,1.05-.15,1.55-.47,.5-.31,.75-.68,.75-1.12,0-.04-.01-.09-.03-.16-.02-.07-.03-.13-.03-.16Zm-21.23-11.2l6.98-23.23,6.94,23.23h-13.92Z"/><path class="cls-3" d="M248.23,266.75c4.91,0,7.63,2.32,8.17,6.96,.04,.96,.67,1.44,1.9,1.44s1.9-.65,1.9-1.96c0-2.91-1.09-5.3-3.28-7.16-2.19-1.86-5.1-2.79-8.74-2.79s-6.49,.99-8.66,2.96c-2.17,1.98-3.25,5.07-3.25,9.29v17.83c0,4.26,1.08,7.37,3.25,9.35,2.17,1.98,5.07,2.96,8.72,2.96s6.55-.99,8.72-2.96c2.17-1.98,3.25-5.09,3.25-9.35v-8.63c0-1-.46-1.5-1.38-1.5h-10.13c-.42,0-.76,.16-1.01,.49-.25,.33-.37,.7-.37,1.12,0,.46,.12,.85,.37,1.18,.25,.33,.58,.49,1.01,.49h7.71v6.85c0,2.95-.71,5.16-2.13,6.62-1.42,1.46-3.43,2.19-6.04,2.19s-4.62-.73-6.04-2.19c-1.42-1.46-2.13-3.66-2.13-6.62v-17.83c0-5.83,2.72-8.74,8.17-8.74Z"/><path class="cls-3" d="M297.88,303.38l-11.99-39.15c-.31-.89-1.07-1.33-2.29-1.33s-1.96,.44-2.23,1.32l-12.03,39.06c-.04,.08-.06,.21-.06,.4,0,.46,.23,.84,.7,1.15,.46,.31,.97,.46,1.51,.46,.85,0,1.35-.32,1.51-.97l2.67-8.87h15.89l2.65,8.86c.23,.65,.71,.98,1.44,.98,.54,0,1.05-.15,1.55-.47,.5-.31,.75-.68,.75-1.12,0-.04,0-.09-.03-.16-.02-.07-.03-.13-.03-.16Zm-21.23-11.2l6.98-23.23,6.94,23.23h-13.92Z"/><path class="cls-3" d="M319.63,266.75c4.91,0,7.63,2.32,8.17,6.96,.04,.96,.67,1.44,1.9,1.44s1.9-.65,1.9-1.96c0-2.91-1.09-5.3-3.28-7.16-2.19-1.86-5.1-2.79-8.74-2.79s-6.49,.99-8.66,2.96c-2.17,1.98-3.25,5.07-3.25,9.29v17.83c0,4.26,1.08,7.37,3.25,9.35,2.17,1.98,5.07,2.96,8.72,2.96s6.55-.99,8.72-2.96c2.17-1.98,3.25-5.09,3.25-9.35v-8.63c0-1-.46-1.5-1.38-1.5h-10.13c-.42,0-.76,.16-1.01,.49-.25,.33-.37,.7-.37,1.12,0,.46,.12,.85,.37,1.18,.25,.33,.58,.49,1.01,.49h7.71v6.85c0,2.95-.71,5.16-2.13,6.62-1.42,1.46-3.43,2.19-6.04,2.19s-4.62-.73-6.04-2.19c-1.42-1.46-2.13-3.66-2.13-6.62v-17.83c0-5.83,2.72-8.74,8.17-8.74Z"/><path class="cls-3" d="M366.05,301.79h-18.41v-15.94h9.03c.96,0,1.44-.52,1.44-1.55,0-.5-.12-.91-.37-1.24-.25-.33-.6-.49-1.06-.49h-9.03v-15.82h18.41c.46,0,.81-.18,1.06-.55,.25-.36,.37-.8,.37-1.29,0-1.11-.48-1.67-1.44-1.67h-20.48c-.46,0-.86,.12-1.21,.37-.34,.25-.52,.6-.52,1.06v39.12c0,.46,.17,.83,.52,1.09,.35,.27,.75,.4,1.21,.4h20.48c.96,0,1.44-.58,1.44-1.73,0-.5-.13-.92-.4-1.27-.27-.34-.61-.52-1.04-.52Z"/></g><g><path class="cls-3" d="M57.59,331.13v-9.4c0-.15,.07-.27,.2-.36s.29-.14,.47-.14h5.07c.16,0,.28,.07,.37,.2,.09,.13,.13,.28,.13,.46,0,.19-.05,.35-.14,.48-.09,.13-.21,.2-.36,.2h-4.23v3.26h2.19c.15,0,.27,.06,.36,.18,.09,.12,.13,.26,.13,.43,0,.15-.04,.29-.13,.4-.08,.12-.21,.18-.37,.18h-2.19v3.27h4.23c.15,0,.27,.07,.36,.2,.09,.13,.14,.29,.14,.48,0,.17-.04,.32-.13,.46-.08,.13-.21,.2-.37,.2h-5.07c-.18,0-.34-.05-.47-.14s-.2-.21-.2-.36Zm2.01-11.81c0-.17,.07-.29,.21-.37l1.76-.9c.08-.02,.13-.03,.16-.03,.13,0,.25,.06,.34,.18,.09,.12,.14,.26,.14,.4,0,.19-.08,.32-.23,.38l-1.72,.87c-.06,.03-.11,.04-.17,.04-.13,0-.25-.06-.35-.18-.1-.12-.15-.26-.15-.4Z"/><path class="cls-3" d="M66.73,331.13v-9.42c0-.16,.07-.28,.22-.36,.15-.08,.32-.12,.53-.12s.39,.04,.53,.12c.15,.08,.22,.2,.22,.36v8.58h3.7c.14,0,.25,.07,.34,.2,.08,.13,.12,.29,.12,.47s-.04,.34-.12,.47c-.08,.13-.19,.2-.34,.2h-4.54c-.18,0-.34-.05-.47-.14s-.2-.21-.2-.36Z"/><path class="cls-3" d="M74.49,331.01c0-.06,0-.1,.02-.13l2.83-9.22c.12-.34,.46-.51,1.01-.51s.91,.16,1.03,.48l2.82,9.22c.02,.06,.03,.1,.03,.13,0,.18-.11,.33-.33,.46-.22,.13-.46,.19-.7,.19-.3,0-.48-.1-.56-.31l-.59-2.04h-3.5l-.58,2.03c-.07,.21-.24,.32-.53,.32-.23,0-.44-.06-.64-.18s-.3-.27-.3-.44Zm2.39-2.92h2.82l-1.43-4.88-1.4,4.88Z"/><path class="cls-3" d="M84.83,328.54v-4.14c0-1.09,.29-1.89,.87-2.41,.58-.51,1.34-.77,2.28-.77s1.74,.24,2.34,.72c.6,.48,.9,1.12,.9,1.92,0,.28-.06,.46-.18,.57-.12,.11-.31,.16-.58,.16-.49,0-.74-.17-.75-.5-.1-1.02-.67-1.52-1.69-1.52-1.12,0-1.68,.61-1.68,1.84v4.14c0,1.22,.56,1.83,1.68,1.83,.54,0,.96-.15,1.25-.46,.29-.31,.44-.77,.44-1.39v-1.17h-1.44c-.15,0-.27-.06-.36-.18-.08-.12-.13-.26-.13-.43,0-.15,.04-.29,.13-.41s.2-.18,.36-.18h2.45c.15,0,.27,.05,.36,.15,.09,.1,.14,.22,.14,.36v1.87c0,1.09-.29,1.89-.88,2.4-.58,.51-1.36,.77-2.33,.77s-1.74-.26-2.32-.77c-.58-.51-.87-1.31-.87-2.4Z"/><path class="cls-3" d="M93.82,331.01c0-.06,0-.1,.02-.13l2.83-9.22c.12-.34,.46-.51,1.01-.51s.91,.16,1.03,.48l2.82,9.22c.02,.06,.03,.1,.03,.13,0,.18-.11,.33-.33,.46-.22,.13-.46,.19-.7,.19-.3,0-.48-.1-.56-.31l-.59-2.04h-3.5l-.58,2.03c-.07,.21-.24,.32-.53,.32-.23,0-.44-.06-.64-.18s-.3-.27-.3-.44Zm2.39-2.92h2.82l-1.43-4.88-1.4,4.88Z"/><path class="cls-3" d="M104.16,328.54v-4.14c0-1.09,.29-1.89,.87-2.41,.58-.51,1.34-.77,2.28-.77s1.74,.24,2.34,.72c.6,.48,.9,1.12,.9,1.92,0,.28-.06,.46-.18,.57-.12,.11-.31,.16-.58,.16-.49,0-.74-.17-.75-.5-.1-1.02-.67-1.52-1.69-1.52-1.12,0-1.68,.61-1.68,1.84v4.14c0,1.22,.56,1.83,1.68,1.83,.54,0,.96-.15,1.25-.46,.29-.31,.44-.77,.44-1.39v-1.17h-1.44c-.15,0-.27-.06-.36-.18-.08-.12-.13-.26-.13-.43,0-.15,.04-.29,.13-.41s.2-.18,.36-.18h2.45c.15,0,.27,.05,.36,.15,.09,.1,.14,.22,.14,.36v1.87c0,1.09-.29,1.89-.88,2.4-.58,.51-1.36,.77-2.33,.77s-1.74-.26-2.32-.77c-.58-.51-.87-1.31-.87-2.4Z"/><path class="cls-3" d="M113.87,331.13v-9.4c0-.15,.07-.27,.2-.36s.29-.14,.47-.14h5.07c.16,0,.28,.07,.37,.2,.09,.13,.13,.28,.13,.46,0,.19-.05,.35-.14,.48-.09,.13-.21,.2-.36,.2h-4.23v3.26h2.19c.15,0,.27,.06,.36,.18,.09,.12,.13,.26,.13,.43,0,.15-.04,.29-.13,.4-.08,.12-.21,.18-.37,.18h-2.19v3.27h4.23c.15,0,.27,.07,.36,.2,.09,.13,.14,.29,.14,.48,0,.17-.04,.32-.13,.46-.08,.13-.21,.2-.37,.2h-5.07c-.18,0-.34-.05-.47-.14s-.2-.21-.2-.36Z"/><path class="cls-3" d="M127.49,331.43v-10.24c0-.14,.07-.26,.21-.35s.32-.14,.54-.14,.39,.05,.53,.14c.15,.09,.22,.21,.22,.35v10.24c0,.13-.08,.25-.23,.35-.15,.1-.33,.15-.53,.15-.22,0-.4-.05-.54-.15-.14-.1-.21-.22-.21-.35Z"/><path class="cls-3" d="M136.32,331.01c0-.06,0-.1,.02-.13l2.83-9.22c.12-.34,.46-.51,1.01-.51s.91,.16,1.03,.48l2.82,9.22c.02,.06,.03,.1,.03,.13,0,.18-.11,.33-.33,.46-.22,.13-.46,.19-.7,.19-.3,0-.48-.1-.56-.31l-.59-2.04h-3.5l-.58,2.03c-.07,.21-.24,.32-.53,.32-.23,0-.44-.06-.64-.18s-.3-.27-.3-.44Zm2.39-2.92h2.82l-1.43-4.88-1.4,4.88Z"/><path class="cls-3" d="M146.76,331.15v-9.42c0-.15,.07-.27,.2-.36s.29-.14,.47-.14h2.59c.87,0,1.57,.18,2.09,.54,.52,.36,.78,1,.78,1.92,0,1.18-.4,1.95-1.21,2.31,.48,.19,.85,.46,1.1,.82,.25,.36,.37,.87,.37,1.56v.27c0,1.04-.26,1.8-.77,2.28-.51,.48-1.2,.71-2.06,.71h-2.89c-.2,0-.36-.05-.48-.14s-.18-.21-.18-.34Zm1.49-5.75h1.69c.96,0,1.44-.49,1.44-1.47,0-.91-.49-1.37-1.47-1.37h-1.66v2.83Zm0,4.89h1.78c1.07,0,1.61-.59,1.61-1.76v-.23c0-.61-.14-1.04-.41-1.31-.27-.27-.67-.4-1.2-.4h-1.78v3.7Z"/><path class="cls-3" d="M155.6,331.01c0-.06,0-.1,.02-.13l2.83-9.22c.12-.34,.46-.51,1.01-.51s.91,.16,1.03,.48l2.82,9.22c.02,.06,.03,.1,.03,.13,0,.18-.11,.33-.33,.46-.22,.13-.46,.19-.7,.19-.3,0-.48-.1-.56-.31l-.59-2.04h-3.5l-.58,2.03c-.07,.21-.24,.32-.53,.32-.23,0-.44-.06-.64-.18s-.3-.27-.3-.44Zm2.39-2.92h2.82l-1.43-4.88-1.4,4.88Z"/><path class="cls-3" d="M164.47,321.92c0-.18,.04-.34,.13-.48,.08-.14,.21-.21,.37-.21h5.9c.16,0,.28,.07,.37,.2,.09,.13,.13,.29,.13,.47,0,.2-.05,.37-.13,.51-.09,.14-.21,.21-.36,.21h-2.19v8.51c0,.15-.08,.27-.23,.36s-.33,.14-.53,.14c-.21,0-.39-.05-.53-.14s-.22-.21-.22-.36v-8.51h-2.21c-.15,0-.27-.07-.36-.21-.09-.14-.14-.31-.14-.5Z"/><path class="cls-3" d="M173.48,321.92c0-.18,.04-.34,.13-.48,.08-.14,.21-.21,.37-.21h5.9c.16,0,.28,.07,.37,.2,.09,.13,.13,.29,.13,.47,0,.2-.05,.37-.13,.51-.09,.14-.21,.21-.36,.21h-2.19v8.51c0,.15-.08,.27-.23,.36s-.33,.14-.53,.14c-.21,0-.39-.05-.53-.14s-.22-.21-.22-.36v-8.51h-2.21c-.15,0-.27-.07-.36-.21-.09-.14-.14-.31-.14-.5Z"/><path class="cls-3" d="M181.68,331.01c0-.06,0-.1,.02-.13l2.83-9.22c.12-.34,.46-.51,1.01-.51s.91,.16,1.03,.48l2.82,9.22c.02,.06,.03,.1,.03,.13,0,.18-.11,.33-.33,.46-.22,.13-.46,.19-.7,.19-.3,0-.48-.1-.56-.31l-.59-2.04h-3.5l-.58,2.03c-.07,.21-.24,.32-.53,.32-.23,0-.44-.06-.64-.18s-.3-.27-.3-.44Zm2.39-2.92h2.82l-1.43-4.88-1.4,4.88Z"/><path class="cls-3" d="M192.02,328.54v-4.14c0-1.09,.29-1.89,.87-2.41,.58-.51,1.34-.77,2.28-.77s1.74,.24,2.34,.72c.6,.48,.9,1.12,.9,1.92,0,.28-.06,.46-.18,.57-.12,.11-.31,.16-.58,.16-.49,0-.74-.17-.75-.5-.1-1.02-.67-1.52-1.69-1.52-1.12,0-1.68,.61-1.68,1.84v4.14c0,1.22,.56,1.83,1.68,1.83,.54,0,.96-.15,1.25-.46,.29-.31,.44-.77,.44-1.39v-1.17h-1.44c-.15,0-.27-.06-.36-.18-.08-.12-.13-.26-.13-.43,0-.15,.04-.29,.13-.41s.2-.18,.36-.18h2.45c.15,0,.27,.05,.36,.15,.09,.1,.14,.22,.14,.36v1.87c0,1.09-.29,1.89-.88,2.4-.58,.51-1.36,.77-2.33,.77s-1.74-.26-2.32-.77c-.58-.51-.87-1.31-.87-2.4Z"/><path class="cls-3" d="M201.74,331.13v-9.4c0-.15,.07-.27,.2-.36s.29-.14,.47-.14h5.07c.16,0,.28,.07,.37,.2,.09,.13,.13,.28,.13,.46,0,.19-.05,.35-.14,.48-.09,.13-.21,.2-.36,.2h-4.23v3.26h2.19c.15,0,.27,.06,.36,.18,.09,.12,.13,.26,.13,.43,0,.15-.04,.29-.13,.4-.08,.12-.21,.18-.37,.18h-2.19v3.27h4.23c.15,0,.27,.07,.36,.2,.09,.13,.14,.29,.14,.48,0,.17-.04,.32-.13,.46-.08,.13-.21,.2-.37,.2h-5.07c-.18,0-.34-.05-.47-.14s-.2-.21-.2-.36Z"/><path class="cls-3" d="M215.35,331.43v-10.24c0-.14,.07-.26,.21-.35s.32-.14,.54-.14,.39,.05,.53,.14c.15,.09,.22,.21,.22,.35v10.24c0,.13-.08,.25-.23,.35-.15,.1-.33,.15-.53,.15-.22,0-.4-.05-.54-.15-.14-.1-.21-.22-.21-.35Z"/><path class="cls-3" d="M224.91,331.15v-9.42c0-.15,.07-.27,.2-.36s.29-.14,.47-.14h2.59c.87,0,1.57,.18,2.09,.54,.52,.36,.78,1,.78,1.92,0,1.18-.4,1.95-1.21,2.31,.48,.19,.85,.46,1.1,.82,.25,.36,.37,.87,.37,1.56v.27c0,1.04-.26,1.8-.77,2.28-.51,.48-1.2,.71-2.06,.71h-2.89c-.2,0-.36-.05-.48-.14s-.18-.21-.18-.34Zm1.49-5.75h1.69c.96,0,1.44-.49,1.44-1.47,0-.91-.49-1.37-1.47-1.37h-1.66v2.83Zm0,4.89h1.78c1.07,0,1.61-.59,1.61-1.76v-.23c0-.61-.14-1.04-.41-1.31-.27-.27-.67-.4-1.2-.4h-1.78v3.7Z"/><path class="cls-3" d="M234.39,328.54v-4.14c0-1.09,.29-1.89,.87-2.41,.58-.51,1.35-.77,2.32-.77s1.74,.26,2.33,.77c.58,.51,.88,1.32,.88,2.41v4.14c0,1.09-.29,1.89-.88,2.4-.58,.51-1.36,.77-2.33,.77s-1.74-.26-2.32-.77c-.58-.51-.87-1.31-.87-2.4Zm1.51,0c0,1.22,.56,1.83,1.68,1.83,.54,0,.96-.15,1.25-.45,.29-.31,.44-.77,.44-1.38v-4.14c0-.62-.15-1.08-.44-1.38-.29-.3-.71-.46-1.25-.46-1.12,0-1.68,.61-1.68,1.84v4.14Z"/><path class="cls-3" d="M244.25,331.13v-9.42c0-.16,.07-.28,.22-.36,.15-.08,.32-.12,.53-.12s.39,.04,.53,.12c.15,.08,.22,.2,.22,.36v9.42c0,.15-.07,.27-.22,.36s-.32,.14-.53,.14-.37-.05-.53-.14c-.15-.09-.23-.21-.23-.36Z"/><path class="cls-3" d="M248.82,330.07c0-.18,.07-.36,.2-.54,.13-.18,.28-.27,.46-.27,.1,0,.23,.06,.38,.18,.15,.12,.29,.25,.43,.4,.14,.14,.36,.27,.65,.39,.29,.12,.61,.18,.97,.18,.54,0,.97-.13,1.3-.39,.33-.26,.49-.63,.49-1.13,0-.46-.16-.84-.48-1.14-.32-.31-.7-.55-1.15-.73-.45-.18-.9-.38-1.36-.58-.46-.21-.84-.52-1.16-.95-.32-.42-.48-.94-.48-1.57,0-.5,.1-.94,.29-1.3,.19-.37,.46-.65,.79-.85,.33-.2,.68-.34,1.05-.43,.36-.09,.75-.14,1.16-.14,.26,0,.52,.02,.8,.05,.28,.03,.56,.09,.83,.16s.5,.18,.68,.32c.18,.14,.27,.3,.27,.48s-.06,.36-.17,.54c-.11,.18-.27,.27-.45,.27-.1,0-.22-.05-.38-.14-.16-.09-.38-.18-.65-.27-.27-.09-.58-.14-.93-.14-.54,0-.97,.11-1.3,.32s-.48,.54-.48,.98c0,.29,.08,.53,.26,.74,.17,.21,.39,.38,.66,.51,.27,.13,.57,.26,.9,.39s.66,.28,.99,.45c.33,.17,.63,.37,.9,.6,.27,.22,.49,.53,.66,.92s.26,.84,.26,1.36c0,.98-.3,1.73-.89,2.24-.59,.51-1.38,.77-2.35,.77-.87,0-1.62-.18-2.23-.55-.61-.37-.92-.74-.92-1.13Z"/><path class="cls-3" d="M262.89,331.15v-9.43c0-.13,.06-.25,.19-.34,.13-.09,.29-.14,.48-.14h2.52c.97,0,1.74,.26,2.33,.77,.58,.51,.87,1.32,.87,2.41v4.06c0,1.09-.29,1.89-.87,2.41-.58,.51-1.36,.77-2.33,.77h-2.52c-.19,0-.35-.05-.48-.14-.13-.09-.19-.21-.19-.34Zm1.51-.85h1.68c1.13,0,1.69-.61,1.69-1.84v-4.06c0-1.22-.56-1.84-1.69-1.84h-1.68v7.73Z"/><path class="cls-3" d="M272.75,331.13v-9.4c0-.15,.07-.27,.2-.36s.29-.14,.47-.14h5.07c.16,0,.28,.07,.37,.2,.09,.13,.13,.28,.13,.46,0,.19-.05,.35-.14,.48-.09,.13-.21,.2-.36,.2h-4.23v3.26h2.19c.15,0,.27,.06,.36,.18,.09,.12,.13,.26,.13,.43,0,.15-.04,.29-.13,.4-.08,.12-.21,.18-.37,.18h-2.19v3.27h4.23c.15,0,.27,.07,.36,.2,.09,.13,.14,.29,.14,.48,0,.17-.04,.32-.13,.46-.08,.13-.21,.2-.37,.2h-5.07c-.18,0-.34-.05-.47-.14s-.2-.21-.2-.36Z"/><path class="cls-3" d="M286.35,328.54v-4.14c0-1.09,.29-1.89,.87-2.41,.58-.51,1.34-.77,2.28-.77s1.75,.24,2.34,.72c.59,.48,.89,1.1,.89,1.86,0,.3-.06,.51-.17,.62s-.31,.16-.58,.16c-.49,0-.74-.17-.75-.5-.06-1.02-.61-1.52-1.66-1.52-1.14,0-1.71,.61-1.71,1.84v4.14c0,1.22,.58,1.83,1.74,1.83,.34,0,.63-.05,.85-.15s.39-.25,.49-.43c.1-.19,.17-.35,.21-.5,.04-.14,.07-.32,.08-.53,.03-.33,.28-.5,.74-.5,.28,0,.47,.05,.59,.16s.18,.32,.18,.62c0,.79-.3,1.43-.9,1.92-.6,.49-1.38,.74-2.35,.74s-1.7-.26-2.28-.77c-.58-.51-.87-1.31-.87-2.4Z"/><path class="cls-3" d="M295.86,331.13v-9.42c0-.16,.07-.28,.22-.36,.15-.08,.32-.12,.53-.12s.39,.04,.53,.12c.15,.08,.22,.2,.22,.36v3.93h3.54v-3.93c0-.16,.07-.28,.22-.36,.15-.08,.32-.12,.53-.12s.39,.04,.53,.12c.15,.08,.22,.2,.22,.36v9.42c0,.15-.07,.27-.22,.36s-.33,.14-.53,.14-.37-.05-.53-.14c-.15-.09-.23-.21-.23-.36v-4.3h-3.54v4.3c0,.15-.07,.27-.22,.36s-.32,.14-.53,.14-.37-.05-.53-.14c-.15-.09-.23-.21-.23-.36Z"/><path class="cls-3" d="M305.27,331.01c0-.06,0-.1,.02-.13l2.83-9.22c.12-.34,.46-.51,1.01-.51s.91,.16,1.03,.48l2.82,9.22c.02,.06,.03,.1,.03,.13,0,.18-.11,.33-.33,.46-.22,.13-.46,.19-.7,.19-.3,0-.48-.1-.56-.31l-.59-2.04h-3.5l-.58,2.03c-.07,.21-.24,.32-.53,.32-.23,0-.44-.06-.64-.18s-.3-.27-.3-.44Zm2.39-2.92h2.82l-1.43-4.88-1.4,4.88Z"/><path class="cls-3" d="M315.66,328.54v-6.83c0-.16,.07-.28,.22-.36,.15-.08,.33-.12,.53-.12s.39,.04,.53,.12c.15,.08,.22,.2,.22,.36v6.83c0,.61,.15,1.07,.46,1.38,.3,.3,.73,.45,1.28,.45,1.17,0,1.75-.61,1.75-1.83v-6.83c0-.16,.07-.28,.22-.36,.15-.08,.33-.12,.53-.12s.39,.04,.53,.12c.15,.08,.22,.2,.22,.36v6.83c0,1.09-.3,1.89-.89,2.4-.59,.51-1.38,.77-2.37,.77s-1.76-.26-2.35-.77c-.59-.51-.89-1.31-.89-2.4Z"/><path class="cls-3" d="M325.71,331.13v-9.4c0-.15,.07-.27,.2-.36s.29-.14,.47-.14h4.99c.16,0,.28,.06,.36,.19,.08,.13,.12,.28,.12,.46s-.04,.35-.13,.48c-.08,.13-.2,.2-.36,.2h-4.15v3.26h2.21c.15,0,.27,.06,.36,.18,.09,.12,.13,.26,.13,.43,0,.15-.04,.29-.12,.4-.08,.12-.2,.18-.36,.18h-2.21v4.11c0,.16-.07,.29-.22,.37-.15,.09-.32,.13-.53,.13s-.37-.04-.53-.13c-.15-.08-.23-.21-.23-.37Z"/><path class="cls-3" d="M334.56,331.13v-9.4c0-.15,.07-.27,.2-.36s.29-.14,.47-.14h4.99c.16,0,.28,.06,.36,.19,.08,.13,.12,.28,.12,.46s-.04,.35-.13,.48c-.08,.13-.2,.2-.36,.2h-4.15v3.26h2.21c.15,0,.27,.06,.36,.18,.09,.12,.13,.26,.13,.43,0,.15-.04,.29-.12,.4-.08,.12-.2,.18-.36,.18h-2.21v4.11c0,.16-.07,.29-.22,.37-.15,.09-.32,.13-.53,.13s-.37-.04-.53-.13c-.15-.08-.23-.21-.23-.37Z"/><path class="cls-3" d="M341.38,331.01c0-.06,0-.1,.02-.13l2.83-9.22c.12-.34,.46-.51,1.01-.51s.91,.16,1.03,.48l2.82,9.22c.02,.06,.03,.1,.03,.13,0,.18-.11,.33-.33,.46-.22,.13-.46,.19-.7,.19-.3,0-.48-.1-.56-.31l-.59-2.04h-3.5l-.58,2.03c-.07,.21-.24,.32-.53,.32-.23,0-.44-.06-.64-.18s-.3-.27-.3-.44Zm2.39-2.92h2.82l-1.43-4.88-1.4,4.88Z"/><path class="cls-3" d="M351.72,328.54v-4.14c0-1.09,.29-1.89,.87-2.41,.58-.51,1.34-.77,2.28-.77s1.74,.24,2.34,.72c.6,.48,.9,1.12,.9,1.92,0,.28-.06,.46-.18,.57-.12,.11-.31,.16-.58,.16-.49,0-.74-.17-.75-.5-.1-1.02-.67-1.52-1.69-1.52-1.12,0-1.68,.61-1.68,1.84v4.14c0,1.22,.56,1.83,1.68,1.83,.54,0,.96-.15,1.25-.46,.29-.31,.44-.77,.44-1.39v-1.17h-1.44c-.15,0-.27-.06-.36-.18-.08-.12-.13-.26-.13-.43,0-.15,.04-.29,.13-.41s.2-.18,.36-.18h2.45c.15,0,.27,.05,.36,.15,.09,.1,.14,.22,.14,.36v1.87c0,1.09-.29,1.89-.88,2.4-.58,.51-1.36,.77-2.33,.77s-1.74-.26-2.32-.77c-.58-.51-.87-1.31-.87-2.4Z"/><path class="cls-3" d="M361.44,331.13v-9.4c0-.15,.07-.27,.2-.36s.29-.14,.47-.14h5.07c.16,0,.28,.07,.37,.2,.09,.13,.13,.28,.13,.46,0,.19-.05,.35-.14,.48-.09,.13-.21,.2-.36,.2h-4.23v3.26h2.19c.15,0,.27,.06,.36,.18,.09,.12,.13,.26,.13,.43,0,.15-.04,.29-.13,.4-.08,.12-.21,.18-.37,.18h-2.19v3.27h4.23c.15,0,.27,.07,.36,.2,.09,.13,.14,.29,.14,.48,0,.17-.04,.32-.13,.46-.08,.13-.21,.2-.37,.2h-5.07c-.18,0-.34-.05-.47-.14s-.2-.21-.2-.36Z"/></g></svg>