<svg id="Capa_1" enable-background="new 0 0 607.824 607.824" height="512" viewBox="0 0 607.824 607.824" width="512" xmlns="http://www.w3.org/2000/svg"><g><g id="Page-1_25_"><g id="_x30_26---Local-Shop"><path id="Shape_88_" d="m286.375 602.013c10.418 7.581 24.486 7.76 35.094.447 55.466-38.294 236.452-176.648 236.452-348.45 0-140.286-113.724-254.01-254.009-254.01s-254.01 113.724-254.01 254.009c0 163.014 180.997 307.575 236.473 348.004zm17.537-583.46c129.49.633 234.032 105.965 233.689 235.457 0 161.906-174.271 294.844-227.684 331.736-3.49 2.439-8.148 2.378-11.573-.152-38.122-27.758-228.121-174.2-228.121-331.584-.343-129.492 104.198-234.825 233.689-235.457z"/><path id="Shape_87_" d="m507.119 252.242c0-112.228-90.979-203.208-203.208-203.208s-203.208 90.979-203.208 203.208 90.979 203.208 203.208 203.208c112.176-.13 203.08-91.033 203.208-203.208zm-111.764 158.136c-15.824 9.207-32.953 15.963-50.802 20.036v-117.21c0-5.611 4.549-10.16 10.16-10.16h30.481c5.611 0 10.16 4.549 10.16 10.16v97.174zm50.802-188.618c0 11.223-9.098 20.321-20.321 20.321s-20.321-9.098-20.321-20.321v-10.16h40.642zm-101.604-10.16h40.642v10.16c0 11.223-9.098 20.321-20.321 20.321s-20.321-9.098-20.321-20.321zm-1.341-20.321-7.265-50.802h22.231l21.774 50.802zm37.065-50.802h1.016c5.936.003 11.575 2.601 15.434 7.112l37.502 43.69h-32.178zm-228.771 107.883v104.754c-50.646-76.352-36.979-178.398 31.974-238.731s171.91-60.334 240.863 0 82.62 162.379 31.974 238.731v-104.754c6.511-7.335 10.124-16.792 10.16-26.6v-12.802c0-7.275-2.602-14.309-7.336-19.833l-46.941-54.744c-7.717-9.023-18.994-14.219-30.867-14.225h-154.843c-11.873.005-23.15 5.202-30.867 14.225l-46.931 54.775c-4.73 5.514-7.336 12.537-7.346 19.803v12.802c.037 9.807 3.649 19.265 10.16 26.599zm172.727-36.76v10.16c0 11.223-9.098 20.321-20.321 20.321s-20.321-9.098-20.321-20.321v-10.16zm-39.087-20.321 7.265-50.802h23.003l7.265 50.802zm-62.517 20.321h40.642v10.16c0 11.223-9.098 20.321-20.321 20.321s-20.321-9.098-20.321-20.321zm-16.856-20.321h-32.168l37.441-43.69c3.861-4.514 9.504-7.113 15.444-7.112h1.016zm22.099 0 21.774-50.802h22.231l-7.265 50.802zm-66.205 30.481v-10.16h40.642v10.16c0 11.223-9.098 20.321-20.321 20.321s-20.321-9.098-20.321-20.321zm10.16 39.199c3.311.915 6.726 1.4 10.16 1.443 11.671.006 22.779-5.018 30.481-13.788 7.706 8.763 18.811 13.786 30.481 13.786s22.775-5.023 30.481-13.786c7.706 8.763 18.811 13.786 30.481 13.786s22.775-5.023 30.481-13.786c7.706 8.763 18.811 13.786 30.481 13.786s22.775-5.023 30.481-13.786c7.702 8.769 18.81 13.794 30.481 13.788 3.435-.043 6.85-.528 10.16-1.443v117.434c-6.31 6.593-13.102 12.706-20.321 18.289v-83.478c0-16.834-13.647-30.481-30.481-30.481h-30.481c-16.834 0-30.481 13.647-30.481 30.481v120.726c-56.718 6.563-113.207-14.022-152.406-55.537v-117.434z"/><path id="Shape_86_" d="m303.912 313.204c0-16.834-13.647-30.481-30.481-30.481h-50.802c-16.834 0-30.481 13.647-30.481 30.481v40.642c0 16.834 13.647 30.481 30.481 30.481h50.802c16.834 0 30.481-13.647 30.481-30.481zm-20.321 40.641c0 5.611-4.549 10.16-10.16 10.16h-50.802c-5.611 0-10.16-4.549-10.16-10.16v-40.642c0-5.611 4.549-10.16 10.16-10.16h50.802c5.611 0 10.16 4.549 10.16 10.16z"/></g></g></g></svg>