<svg id="Capa_1" enable-background="new 0 0 512.027 512.027" height="512" viewBox="0 0 512.027 512.027" width="512" xmlns="http://www.w3.org/2000/svg"><g><path d="m486.859 145.287v-60.972c0-5.9-3.323-11.111-8.672-13.6s-11.476-1.675-15.988 2.124l-15.169 12.771c-3.239-3.624-6.593-7.171-10.021-10.6-48.353-48.351-112.64-74.98-181.021-74.98-68.38 0-132.667 26.629-181.019 74.981-31.879 31.879-54.823 71.63-66.352 114.954-11.183 42.03-11.487 86.545-.878 128.734 1.011 4.017 5.083 6.454 9.103 5.444 4.017-1.01 6.455-5.085 5.444-9.103-9.99-39.726-9.704-81.643.827-121.218 10.85-40.774 32.449-78.191 62.463-108.205 45.519-45.519 106.04-70.587 170.413-70.587 64.374 0 124.894 25.068 170.413 70.588 4.897 4.896 9.631 10.051 14.072 15.32 2.668 3.166 7.397 3.572 10.565.905l20.82-17.527v84.07l-82.839-14.333 21.088-17.752c1.522-1.282 2.473-3.115 2.643-5.098.17-1.982-.455-3.951-1.737-5.472-3.738-4.437-7.72-8.773-11.836-12.889-38.247-38.247-89.1-59.311-143.189-59.311-54.09 0-104.942 21.064-143.189 59.311-30.671 30.671-50.362 69.476-56.942 112.219-5.705 37.061-1.206 74.265 12.99 108.466l-26.07-4.511c-4.372-.755-8.825.449-12.218 3.306s-5.339 7.039-5.339 11.475v84.07c0 5.9 3.323 11.111 8.672 13.6 5.347 2.488 11.475 1.675 15.988-2.125l15.173-12.773c3.206 3.582 6.524 7.09 9.915 10.481 49.64 49.64 115.312 74.951 181.247 74.948 55.228-.002 110.643-17.764 156.945-53.864 3.267-2.546 3.85-7.259 1.303-10.526s-7.259-3.852-10.526-1.303c-95.623 74.551-232.489 66.013-318.363-19.862-4.86-4.86-9.561-9.976-13.972-15.203-2.668-3.164-7.395-3.567-10.562-.901l-20.821 17.527v-84.07l82.839 14.333-21.087 17.753c-1.523 1.282-2.474 3.116-2.643 5.1-.169 1.983.457 3.953 1.74 5.474 3.704 4.39 7.65 8.684 11.73 12.763 38.247 38.248 89.099 59.311 143.189 59.311 54.089 0 104.942-21.063 143.189-59.311 58.316-58.316 75.168-145.332 43.995-220.574l26.129 4.521c4.368.756 8.825-.449 12.217-3.306.884-.745 1.665-1.583 2.344-2.489 29.806 86.29 8.316 183.293-57.462 249.071-2.929 2.929-2.929 7.678 0 10.606 1.464 1.464 3.384 2.197 5.303 2.197s3.839-.732 5.303-2.197c76.881-76.878 96.8-193.911 49.853-291.761zm-98.287 243.325c-35.414 35.414-82.5 54.917-132.583 54.917s-97.168-19.503-132.583-54.918c-2.012-2.012-3.988-4.08-5.915-6.187l15.229-12.82c4.513-3.799 6.36-9.697 4.819-15.392s-6.108-9.857-11.922-10.864l-38.994-6.747c-34.104-71.615-19.546-156.826 36.783-213.155 35.414-35.414 82.5-54.917 132.583-54.917s97.168 19.503 132.583 54.918c2.049 2.048 4.062 4.155 6.022 6.304l-15.234 12.824c-4.513 3.8-6.36 9.697-4.819 15.392s6.108 9.857 11.922 10.864l38.945 6.739c34.031 71.588 19.452 156.753-36.836 213.042z"/><path d="m281.51 119.723c-17.157-18.124-22.938-18.124-25.407-18.124s-8.25 0-25.407 18.124c-10.413 11-21.834 25.327-32.162 40.344-16.099 23.41-43.107 68.398-43.107 106.688 0 31.291 11.105 54.827 33.007 69.953 18.734 12.938 41.905 16.932 60.169 17.728v44.618c0 4.142 3.358 7.5 7.5 7.5s7.5-3.358 7.5-7.5v-87.881l55.052-55.051c2.929-2.929 2.929-7.678 0-10.606-2.928-2.93-7.677-2.929-10.606 0l-44.445 44.445v-59.163l31.717-31.717c2.929-2.929 2.929-7.678 0-10.606-2.929-2.929-7.678-2.929-10.606 0l-21.11 21.11v-57.51c0-4.142-3.358-7.5-7.5-7.5s-7.5 3.358-7.5 7.5v57.51l-21.11-21.11c-2.929-2.929-7.678-2.929-10.606 0-2.929 2.929-2.929 7.678 0 10.606l31.717 31.717v59.163l-44.445-44.445c-2.929-2.929-7.678-2.929-10.606 0-2.929 2.929-2.929 7.678 0 10.606l55.052 55.051v28.246c-16.037-.76-35.97-4.229-51.645-15.054-17.605-12.158-26.532-31.542-26.532-57.61 0-33.176 24.075-73.879 38.425-95.188 20.82-30.917 40.746-50.904 47.251-54.605 6.505 3.701 26.431 23.688 47.251 54.605 14.351 21.31 38.425 62.012 38.425 95.188 0 38.521-19.214 62.094-57.109 70.064-4.054.853-6.648 4.83-5.796 8.883.853 4.054 4.833 6.65 8.883 5.796 20.334-4.276 36.557-12.785 48.218-25.29 13.805-14.804 20.805-34.807 20.805-59.453 0-38.29-27.008-83.279-43.107-106.688-10.332-15.017-21.753-29.344-32.166-40.344z"/></g></svg>