<svg clip-rule="evenodd" fill-rule="evenodd" height="512" image-rendering="optimizeQuality" shape-rendering="geometricPrecision" text-rendering="geometricPrecision" viewBox="0 0 7111 7111" width="512" xmlns="http://www.w3.org/2000/svg"><g id="Layer_x0020_1"><g id="_473803816"><path d="m6936 3982h-766c-380 0-691-340-691-755v-518c0-58 46-104 104-104 57 0 103 46 103 104v518c0 306 219 553 490 553h766c57 0 103 46 103 104 0 57-57 98-109 98z"/><path d="m3158 5082c-57 0-103-46-103-104s46-104 103-104h1872c0-979 6-1958 6-2937 0-46-41-86-87-86h-3311c-58 0-104-46-104-104 0-57 46-103 104-103h3305c162 0 288 126 288 288v673h1129c150 0 202 133 230 202l513 1215c6 12 6 23 6 40v835c5 104-81 185-185 185h-201c-110 0-98-106-98-179 0-363-300-662-662-662-363 0-657 299-657 662v81c0 57-46 103-103 103-681 0-1363-5-2045-5zm3668-202h87v-800l-507-1198c-23-58-34-75-40-75h-1129v1635c150-241 420-403 726-403 472 0 852 375 863 841zm-5182 202h-311c-81 0-162-35-219-93-52-57-75-126-69-201l29-265c5-58 57-98 109-86 58 5 98 57 86 109l-28 259c0 17 11 35 17 46 17 18 40 29 69 29h311c58 0 104 46 104 104 0 57-41 98-98 98z"/><path d="m7011 4379h-161c-58 0-104-46-104-104 0-57 46-103 104-103h161c57 0 103 46 103 103 0 58-46 104-103 104z"/><path d="m5963 5467c-311 0-559-253-559-564s253-564 559-564c311 0 564 253 564 564s-253 564-564 564zm0-927c-196 0-357 162-357 363 0 202 161 363 357 363 201 0 362-161 362-363 0-201-161-363-362-363z"/><path d="m5133 4632h-2067c-58 0-104-46-104-103 0-58 46-104 104-104h2067c58 0 104 46 104 104 0 57-46 103-104 103zm-3397 0h-559c-57 0-103-46-103-103 0-58 46-104 103-104h559c57 0 103 46 103 104 0 57-46 103-103 103z"/><path d="m3078 2387h-1855c-57 0-103-47-103-104 0-58 46-104 103-104h1855c57 0 103 46 103 104 0 57-52 104-103 104z"/><path d="m2352 2934h-1854c-58 0-104-46-104-104s46-104 104-104h1854c58 0 104 46 104 104s-52 104-104 104z"/><path d="m2657 3423h-1848c-58 0-104-46-104-104 0-57 46-103 104-103h1848c58 0 104 46 104 103 0 58-52 104-104 104z"/><path d="m1955 3918h-1855c-57 0-103-46-103-103 0-58 46-104 103-104h1855c57 0 103 46 103 104 0 57-46 103-103 103z"/><path d="m2404 5462c-311 0-559-254-559-559s254-559 559-559c311 0 558 254 558 559s-247 559-558 559zm0-916c-196 0-357 161-357 357s161 357 357 357 357-161 357-357-161-357-357-357z"/><path d="m3158 5082c-6 0-11 0-17 0-58-12-92-64-81-116 0-17 0-34 0-63 0-363-293-662-656-662s-662 299-662 662v63c11 58-29 110-81 116-58 11-109-29-115-81-6-35-6-63-6-98 0-478 386-864 864-864 472 0 858 386 858 864 0 35 0 63-6 98-6 46-52 81-98 81z"/></g></g></svg>