<svg height="512" viewBox="0 0 28 28" width="512" xmlns="http://www.w3.org/2000/svg"><g id="Layer_2" data-name="Layer 2"><path d="m25.939 17.175v-6.241a1.748 1.748 0 0 0 -3.5 0v3.06a1.608 1.608 0 0 0 -2.135.514l-1.778 2.672-.378.133a4.19 4.19 0 0 0 -2.7 4.751l.138.684a.491.491 0 0 0 -.22.4v2.852a.5.5 0 0 0 .5.5h6.041a.5.5 0 0 0 .5-.5v-2.846a.494.494 0 0 0 -.13-.33l3.574-5.372a.5.5 0 0 0 .088-.277zm-4.528 8.325h-5.041v-1.846h5.041zm-.211-2.853v.007h-4.6l-.157-.784a3.181 3.181 0 0 1 2.05-3.61l.535-.19a.5.5 0 0 0 .25-.194l1.869-2.811a.624.624 0 0 1 .853-.172.615.615 0 0 1 .267.4.623.623 0 0 1 -.093.469l-.057.086-.566.85-1.522 2.287a.5.5 0 1 0 .832.555l1.817-2.729.33-.5.345-.519a.5.5 0 0 0 .084-.277v-4.577a.746.746 0 0 1 .459-.691.747.747 0 0 1 1.037.689v6.088z"/><path d="m12.548 22.067a4.19 4.19 0 0 0 -2.7-4.751l-.378-.133-1.77-2.672a1.608 1.608 0 0 0 -2.14-.511v-3.06a1.748 1.748 0 1 0 -3.5 0v6.24a.5.5 0 0 0 .084.277l3.574 5.372a.494.494 0 0 0 -.13.33v2.841a.5.5 0 0 0 .5.5h6.042a.5.5 0 0 0 .5-.5v-2.846a.491.491 0 0 0 -.22-.4zm-9.487-5.044v-6.087a.748.748 0 0 1 1.039-.691.748.748 0 0 1 .46.692v4.577a.5.5 0 0 0 .084.277l2.493 3.746a.5.5 0 1 0 .832-.555l-1.523-2.282-.623-.936a.622.622 0 0 1 .177-.872.635.635 0 0 1 .468-.093.622.622 0 0 1 .4.266l1.87 2.811a.5.5 0 0 0 .25.194l.536.19a3.181 3.181 0 0 1 2.049 3.61l-.157.784h-4.6v-.007zm8.569 8.477h-5.041v-1.846h5.041z"/><path d="m20.5 9.222v-4.634a.5.5 0 0 0 -.3-.459l-6-2.588a.5.5 0 0 0 -.4 0l-6 2.588a.5.5 0 0 0 -.3.459v4.634a6.41 6.41 0 0 0 2.314 4.94l3.866 3.222a.5.5 0 0 0 .64 0l3.866-3.222a6.41 6.41 0 0 0 2.314-4.94zm-2.955 4.178-3.545 2.95-3.546-2.95a5.419 5.419 0 0 1 -1.954-4.178v-4.3l5.5-2.377 5.5 2.372v4.305a5.416 5.416 0 0 1 -1.955 4.178z"/><path d="m15.9 6.646-2.65 2.647-1.15-1.147a.5.5 0 0 0 -.708.708l1.5 1.5a.5.5 0 0 0 .708 0l3-3a.5.5 0 0 0 -.708-.708z"/></g></svg>