<?xml version="1.0" encoding="UTF-8"?><svg id="Calque_1" xmlns="http://www.w3.org/2000/svg" viewBox="0 0 113.39 113.39"><defs><style>.cls-1{fill:#afca0b;}</style></defs><path class="cls-1" d="M35.02,53.22c-1.06,0-1.93,.87-1.93,1.93s.87,1.93,1.93,1.93c6.13,0,11.95-2.35,16.38-6.63l.18-.17v-5.94l-1.06,1.34c-3.78,4.79-9.43,7.54-15.5,7.54Z"/><path class="cls-1" d="M39.21,71.3v-.7s-.7,.13-.7,.13c-1.15,.21-2.33,.31-3.48,.31-1.06,0-1.93,.87-1.93,1.93s.87,1.93,1.93,1.93c1.3,0,2.63-.11,3.94-.34l.59-.1-.1-.59c-.15-.85-.23-1.72-.24-2.58Z"/><path class="cls-1" d="M76.31,11.47H37.08c-9.95,0-18.05,8.1-18.05,18.05v41.98c0,9.27,5.56,17.5,14.17,20.96l23.5,9.46,23.51-9.46c8.6-3.46,14.16-11.69,14.16-20.96V29.52c0-9.95-8.1-18.05-18.05-18.05Zm-17.68,72.25v-18.97c2.63,4.01,6.42,7.14,10.88,8.95-1.07,5.29-5.53,9.38-10.88,10.01Zm11.14-14.12c-6.79-3.3-11.14-10.17-11.14-17.76v-5.44c2.68,4.1,6.57,7.26,11.14,9.06v14.14Zm-11.14,18.01c7.12-.63,13-5.77,14.58-12.74,1.69,.38,3.42,.57,5.16,.57,1.06,0,1.93-.87,1.93-1.93s-.87-1.93-1.93-1.93c-1.6,0-3.19-.19-4.74-.58v-14.4c1.57,.32,3.16,.48,4.74,.48,1.06,0,1.93-.87,1.93-1.93s-.87-1.93-1.93-1.93c-1.59,0-3.19-.19-4.74-.58V28.57c0-3.94-3.21-7.15-7.15-7.15h-9.78c-1.06,0-1.93,.87-1.93,1.93s.87,1.93,1.93,1.93h9.78c1.81,0,3.29,1.47,3.29,3.29v22.66c-6.79-3.3-11.14-10.17-11.14-17.76,0-1.06-.87-1.93-1.93-1.93s-1.93,.87-1.93,1.93c0,.39-.02,.78-.04,1.19v12.36s.04-.07,.04-.07v4.34c0,.39-.02,.78-.04,1.19l.04,31.09c-1.22-.23-2.4-.65-3.5-1.23-3.64-1.93-6.09-5.46-6.62-9.5,2.49-1.12,4.76-2.66,6.75-4.58l.18-.17v-5.94l-1.06,1.34c-1.63,2.07-3.69,3.82-5.99,5.09v-5.42c0-1.06-.87-1.93-1.93-1.93-.96,0-1.78,.72-1.91,1.67-.01,.09-.03,.17-.03,.26v8.03c0,.74,.05,1.51,.16,2.28,.48,3.44,2.01,6.59,4.43,9.11,1.58,1.64,3.42,2.92,5.49,3.79,1.28,.54,2.62,.91,4.01,1.12v9.48l-20.13-8.1c-7.14-2.87-11.75-9.7-11.75-17.39V29.52c0-7.82,6.37-14.19,14.19-14.19h39.23c7.83,0,14.19,6.37,14.19,14.19v41.98c0,7.69-4.61,14.51-11.75,17.38l-20.13,8.1v-9.38Z"/></svg>