<?xml version="1.0" encoding="UTF-8"?><svg id="Calque_1" xmlns="http://www.w3.org/2000/svg" viewBox="0 0 103.14 152.43"><path d="M3,54.57c13.89,0,26.5-5.53,35.78-14.49v-8.91c-8.35,10.59-21.28,17.4-35.78,17.4-1.66,0-3,1.34-3,3s1.34,3,3,3Z"/><g><path d="M100.14,89.71c-25.13,0-45.57-20.44-45.57-45.57V27.11c8.67,16.32,25.84,27.46,45.57,27.46,1.66,0,3-1.34,3-3s-1.34-3-3-3c-25.13,0-45.57-20.44-45.57-45.57,0-1.66-1.34-3-3-3s-3,1.34-3,3c0,.9-.03,1.79-.08,2.67V27.26c.03-.05,.06-.1,.08-.15v15.84c0,.9-.03,1.79-.08,2.67v21.59c.03-.05,.06-.1,.08-.15v82.38c0,1.66,1.34,3,3,3s3-1.34,3-3V68.25c8.67,16.32,25.84,27.46,45.57,27.46,1.66,0,3-1.34,3-3s-1.34-3-3-3Z"/><g><path  d="M17.03,86.28v.91c0,1.77,.15,3.53,.43,5.25,8.1-2.38,15.39-6.69,21.31-12.41v-8.91c-5.53,7.01-13.08,12.35-21.75,15.17Z"/><path d="M11.05,87.8c-2.61,.47-5.3,.71-8.05,.71-1.66,0-3,1.34-3,3s1.34,3,3,3c2.93,0,5.81-.26,8.61-.73-.34-1.96-.53-3.96-.56-5.98Z"/></g></g></svg>